<?xml version="1.0" encoding="utf-8"?>
<!-- Generator: Adobe Illustrator 25.2.3, SVG Export Plug-In . SVG Version: 6.00 Build 0)  -->
<svg version="1.1" id="Layer_1" xmlns="http://www.w3.org/2000/svg" xmlns:xlink="http://www.w3.org/1999/xlink" x="0px" y="0px"
	 viewBox="0 0 116.1 48" style="enable-background:new 0 0 116.1 48;" xml:space="preserve">
<style type="text/css">
	.st0{fill:#FFFFFF;}
</style>
<g>
	<path class="st0" d="M9.6,12.4L4.1,4.1c-0.6-0.9-1.4-1.6-2-2.3C1.4,1.2,0.6,0.7,0,0.7V0.1h3.4c1.1,0,2,0.3,2.9,1s1.5,1.5,2.2,2.4
		l4.3,6.4l6-9.8h2l-7,11.5v9h-4C9.6,20.6,9.6,12.4,9.6,12.4z"/>
	<path class="st0" d="M22.5,19.9c-1.1-0.6-1.9-1.6-2.6-2.7C19.4,16,19,14.8,19,13.4c0-1.6,0.3-3,0.9-4.1s1.5-2,2.4-2.6
		c1.1-0.5,2.2-0.9,3.6-0.9c1.3,0,2.4,0.3,3.5,0.7c1.1,0.5,1.8,1.3,2.4,2.2c0.6,1,0.9,2,0.9,3.3c0,0.4,0,0.9-0.1,1.4V14h-9.4
		c0,1.9,0.3,3.4,0.9,4.4c0.5,0.9,1.5,1.4,2.6,1.4c1,0,1.8-0.2,2.6-0.6c0.6-0.5,1.4-1.1,1.9-1.9l1,0.6c-0.5,1-1.4,1.7-2.2,2.3
		c-0.9,0.5-2.1,1-3.6,1C24.8,20.9,23.6,20.5,22.5,19.9z M28.6,12.4c0-1.9-0.2-3.3-0.6-4.1C27.4,7.5,26.9,7,26,7
		c-0.7,0-1.5,0.4-1.9,1.3c-0.5,0.9-0.7,2.2-0.7,4.1H28.6z"/>
	<path class="st0" d="M36.2,10c0-1.1-0.1-1.8-0.4-2.3C35.5,7.2,34.9,7,34.1,7h-0.3V6h3.1c0.6,0,1.3,0.1,1.6,0.3
		c0.4,0.2,0.6,0.5,1,0.9c1.1-1,2.6-1.5,4.6-1.5c1.9,0,3.5,0.5,4.5,1.4c1,1,1.5,2.3,1.5,4.4v9.1h-4v-9.2c0-1.5-0.3-2.6-0.7-3.1
		c-0.5-0.6-1.3-1-2.1-1c-0.6,0-1.2,0.1-1.7,0.3S40.7,8,40.4,8.2l0.1,0.5c0.1,0.3,0.1,0.6,0.1,1.3v10.7h-4C36.2,20.6,36.2,10,36.2,10
		z"/>
	<path class="st0" d="M54.1,10c0-1.1-0.2-1.8-0.5-2.3S52.7,7,51.9,7h-0.3V6h3.7C56,6,56.7,6.1,57,6.4c0.3,0.3,0.7,0.6,0.8,1.2
		C58,8.1,58.1,9,58.1,10v10.5h-4V10z M54.4,3.7c-0.4-0.5-0.5-1.1-0.5-1.6s0.2-1,0.5-1.3s0.7-0.5,1.3-0.5c0.7,0,1.4,0.2,1.7,0.6
		c0.4,0.5,0.5,1.1,0.5,1.6s-0.3,1.1-0.5,1.3c-0.2,0.2-0.7,0.5-1.3,0.5C55.3,4.3,54.7,4.1,54.4,3.7z"/>
	<path class="st0" d="M70,10c0-1.1-0.2-1.8-0.5-2.3S68.6,7,67.8,7h-0.3V6h3.7c0.7,0,1.4,0.1,1.7,0.4c0.4,0.3,0.6,0.6,0.7,1.3
		c0.2,0.5,0.3,1.4,0.3,2.4v10.5h-4V10H70z M70.3,3.7c-0.4-0.5-0.5-1.1-0.5-1.6s0.2-1,0.5-1.3s0.7-0.5,1.3-0.5c0.7,0,1.4,0.2,1.7,0.6
		c0.4,0.6,0.5,1.1,0.5,1.6s-0.2,1.1-0.5,1.3C73,4.1,72.6,4.3,72,4.3C71.3,4.3,70.8,4.1,70.3,3.7z"/>
	<path class="st0" d="M78.4,4.1c0-1.1-0.2-1.8-0.5-2.3S77,1,76.2,1h-0.3V0h3.7c0.7,0,1.4,0.1,1.7,0.4c0.5,0.2,0.9,0.6,1.1,1.2
		C82.6,2.1,82.7,3,82.7,4v16.4h-4L78.4,4.1L78.4,4.1z"/>
	<path class="st0" d="M87.3,18.8c-1.2-1.5-1.7-3.3-1.7-5.5s0.5-4,1.7-5.5s2.8-2.1,4.9-2.1c0.7,0,1.6,0.2,2.4,0.5
		c0.3,0.2,0.5,0.3,0.9,0.5V4.1c0-1.1-0.2-1.8-0.5-2.3S94.1,1,93.3,1H93V0h3.7c0.7,0,1.4,0.1,1.7,0.4C98.8,0.7,99,1,99.3,1.7
		c0.2,0.5,0.3,1.4,0.3,2.4v16.4H97l-1.1-1.4h-0.2c-0.2,0.3-0.5,0.5-0.9,0.9c-0.6,0.5-1.6,0.9-2.7,0.9C90,20.9,88.5,20.2,87.3,18.8z
		 M94.9,18.5c0.2-0.2,0.5-0.5,0.6-1.1V7.9c-0.2-0.2-0.5-0.3-0.7-0.5c-0.6-0.3-1.3-0.5-1.9-0.5c-2,0-3.1,2-3.1,6.2
		c0,1.9,0.2,3.5,0.6,4.6c0.4,1.1,1.3,1.6,2.2,1.6C93.5,19.4,94.1,19.2,94.9,18.5z"/>
	<path class="st0" d="M112.6,6.7c1.1,0.6,1.9,1.6,2.6,2.7c0.5,1.2,0.9,2.4,0.9,3.8c0,1.6-0.3,3-0.9,4.1c-0.5,1.2-1.5,2-2.4,2.6
		c-1.1,0.5-2.2,0.9-3.5,0.9s-2.4-0.3-3.5-0.7c-1.1-0.5-1.8-1.3-2.4-2.2c-0.5-1-0.9-2-0.9-3.3c0-0.4,0-0.9,0.1-1.4l0.1-0.5h9.4
		c0-1.9-0.3-3.4-0.9-4.4c-0.5-0.9-1.5-1.4-2.6-1.4c-1,0-1.8,0.2-2.6,0.6c-0.6,0.5-1.4,1.1-1.9,1.9l-1-0.6c0.5-1,1.4-1.7,2.2-2.3
		c0.9-0.5,2.1-1,3.6-1C110.4,5.7,111.6,6,112.6,6.7z M106.6,14.1c0,1.9,0.2,3.3,0.6,4.1c0.5,0.7,1.1,1.3,1.9,1.3
		c0.7,0,1.5-0.4,1.9-1.3c0.5-0.9,0.7-2.2,0.7-4.1C111.8,14.1,106.6,14.1,106.6,14.1z"/>
	<path class="st0" d="M14.4,47.1c-0.4-0.3-0.6-0.5-0.9-0.9h-0.2l-1.1,1.4H9.7V31.1c0-1.1-0.2-1.8-0.5-2.3s-0.9-0.7-1.7-0.7H7.2v-1
		h3.7c0.7,0,1.4,0.1,1.7,0.4c0.3,0.3,0.6,0.6,0.9,1.3c0.2,0.5,0.3,1.4,0.3,2.4v2.6c0.3-0.2,0.5-0.3,0.9-0.5c0.9-0.3,1.6-0.5,2.4-0.5
		c2.1,0,3.7,0.6,4.9,2.1s1.7,3.3,1.7,5.5s-0.5,4-1.7,5.5S19.3,48,17.2,48C15.9,47.9,15.1,47.6,14.4,47.1z M18.8,44.8
		c0.5-1.2,0.6-2.6,0.6-4.6c0-4.1-1.1-6.2-3.1-6.2c-0.5,0-1.3,0.2-1.9,0.5c-0.3,0.2-0.5,0.3-0.7,0.5v9.5c0.2,0.4,0.4,0.7,0.6,1.1
		c0.5,0.6,1.4,1,2.1,1C17.5,46.5,18.2,46,18.8,44.8z"/>
	<path class="st0" d="M27.3,37c0-1.1-0.2-1.8-0.5-2.3S25.9,34,25.1,34h-0.4v-1h3.7c0.7,0,1.4,0.1,1.7,0.4c0.4,0.3,0.6,0.6,0.9,1.3
		c0.2,0.5,0.3,1.4,0.3,2.4v10.5h-4L27.3,37L27.3,37z M27.5,30.7c-0.4-0.5-0.5-1.1-0.5-1.6s0.2-1,0.5-1.3s0.7-0.5,1.3-0.5
		c0.7,0,1.4,0.2,1.7,0.6c0.4,0.5,0.5,1.1,0.5,1.6s-0.2,1-0.5,1.3c-0.3,0.3-0.7,0.5-1.3,0.5C28.5,31.3,27.9,31.1,27.5,30.7z"/>
	<path class="st0" d="M45.7,34.2c0.2,0.3,0.3,0.5,0.3,0.5L44.4,36c-0.2-0.2-0.3-0.4-0.5-0.5c-0.5-0.4-1-0.5-1.6-0.5
		c-1.2,0-2.1,0.3-2.8,1l0.1,0.5c0,0.4,0.1,0.6,0.1,1.1V48h-4.1V37c0-1.1-0.1-1.8-0.4-2.3c-0.3-0.5-0.9-0.7-1.7-0.7h-0.3v-1h3.1
		c0.6,0,1.3,0.1,1.6,0.3c0.4,0.2,0.6,0.5,1,0.9c1.2-1,2.4-1.5,3.9-1.5c0.9,0,1.6,0.2,2.2,0.5C45.2,33.7,45.5,33.9,45.7,34.2z"/>
	<path class="st0" d="M48,31.1c0-1.1-0.2-1.8-0.5-2.3S46.6,28,45.8,28h-0.3v-1h3.7c0.7,0,1.4,0.1,1.7,0.4c0.4,0.3,0.6,0.6,0.9,1.3
		c0.2,0.5,0.3,1.4,0.3,2.4v16.4h-3.9L48,31.1L48,31.1z"/>
	<path class="st0" d="M56.4,37c0-1.1-0.2-1.8-0.5-2.3S55,34,54.2,34h-0.3v-1h3.8c0.7,0,1.4,0.1,1.7,0.4c0.4,0.3,0.6,0.6,0.9,1.3
		c0.2,0.5,0.3,1.4,0.3,2.4v10.5h-4L56.4,37L56.4,37z M56.7,30.7c-0.4-0.5-0.5-1.1-0.5-1.6s0.2-1,0.5-1.3s0.7-0.5,1.3-0.5
		c0.7,0,1.4,0.2,1.7,0.6c0.4,0.5,0.5,1.1,0.5,1.6s-0.2,1-0.5,1.3c-0.3,0.3-0.7,0.5-1.3,0.5C57.7,31.3,57.1,31.1,56.7,30.7z"/>
	<path class="st0" d="M73.9,47.4c-0.7-0.4-1.5-1.1-2.1-1.9l-3-3.9v6.1h-4V31.1c0-1.1-0.2-1.8-0.5-2.3C64,28.3,63.4,28,62.6,28h-0.3
		v-1H66c0.7,0,1.4,0.1,1.7,0.4c0.4,0.3,0.6,0.6,0.9,1.3c0.2,0.5,0.3,1.4,0.3,2.4V40l3.7-4.7c0.6-0.9,1.4-1.5,2-1.8
		c0.5-0.4,1.5-0.5,2.6-0.5h0.5v0.7c-0.5,0-1.2,0.1-1.6,0.4c-0.5,0.3-1,0.6-1.5,1.2l-3,3.6l4.1,5.5c1,1.4,1.9,2.1,2.9,2.3v0.7
		c-0.2,0.1-0.5,0.2-0.9,0.2c-0.5,0.1-0.9,0.1-1.3,0.1C75.5,47.9,74.7,47.7,73.9,47.4z"/>
	<path class="st0" d="M80.3,45.8c-1.2-1.5-1.7-3.3-1.7-5.5s0.5-4,1.7-5.5s2.8-2.1,4.9-2.1c0.7,0,1.6,0.2,2.4,0.5
		c0.3,0.2,0.5,0.3,0.9,0.5v-2.6c0-1.1-0.2-1.8-0.5-2.3s-0.9-0.7-1.7-0.7H86v-1h3.7c0.7,0,1.4,0.1,1.7,0.4c0.4,0.3,0.6,0.6,0.9,1.3
		c0.2,0.5,0.3,1.4,0.3,2.4v16.4H90l-1.1-1.4h-0.2c-0.2,0.3-0.5,0.5-0.9,0.9c-0.6,0.5-1.6,0.9-2.7,0.9C83.2,47.9,81.5,47.3,80.3,45.8
		z M87.9,45.5c0.2-0.2,0.5-0.5,0.6-1.1v-9.5c-0.2-0.2-0.5-0.3-0.7-0.5c-0.6-0.3-1.3-0.5-1.9-0.5c-2,0-3.1,2-3.1,6.2
		c0,1.9,0.2,3.5,0.6,4.6c0.4,1.1,1.3,1.6,2.2,1.6C86.6,46.5,87.3,46.2,87.9,45.5z"/>
	<path class="st0" d="M105.8,33.8c1.1,0.6,1.9,1.6,2.6,2.7c0.5,1.2,0.9,2.4,0.9,3.8c0,1.6-0.3,3-0.9,4.1c-0.5,1.2-1.5,2-2.4,2.6
		c-1.1,0.5-2.2,0.9-3.5,0.9s-2.4-0.3-3.5-0.7c-1.1-0.5-1.8-1.3-2.4-2.2c-0.5-1-0.9-2-0.9-3.3c0-0.4,0-0.9,0.1-1.4l0.1-0.5h9.4
		c0-1.9-0.3-3.4-0.9-4.4c-0.5-0.9-1.5-1.4-2.6-1.4c-1,0-1.8,0.2-2.6,0.6c-0.7,0.4-1.4,1.1-1.9,1.9l-1-0.6c0.5-1,1.4-1.7,2.2-2.3
		c0.9-0.5,2.1-1,3.6-1C103.4,32.7,104.7,33,105.8,33.8z M99.8,41.1c0,1.9,0.2,3.3,0.6,4.1c0.5,0.7,1.1,1.3,1.9,1.3
		c0.7,0,1.5-0.4,1.9-1.3c0.5-0.9,0.7-2.2,0.7-4.1H99.8z"/>
</g>
</svg>
