<?xml version="1.0" encoding="utf-8"?>
<!-- Generator: Adobe Illustrator 25.2.3, SVG Export Plug-In . SVG Version: 6.00 Build 0)  -->
<svg version="1.1" id="Layer_1" xmlns="http://www.w3.org/2000/svg" xmlns:xlink="http://www.w3.org/1999/xlink" x="0px" y="0px"
	 viewBox="0 0 120.4 49.6" style="enable-background:new 0 0 120.4 49.6;" xml:space="preserve">
<style type="text/css">
	.st0{fill:#FFFFFF;}
</style>
<g>
	<path class="st0" d="M10,12.8L4.3,4.2C3.6,3.3,2.9,2.5,2.2,1.8C1.4,1.1,0.7,0.7,0,0.7V0h3.5c1.1,0,2.1,0.3,3,1s1.6,1.5,2.3,2.5
		l4.4,6.6L19.4,0h2.1l-7.3,11.9v9.4H10C10,21.3,10,12.8,10,12.8z"/>
	<path class="st0" d="M23.4,20.5c-1.1-0.7-2-1.6-2.6-2.8s-0.9-2.5-0.9-4c0-1.7,0.3-3.1,0.9-4.3c0.6-1.2,1.5-2.1,2.5-2.7
		c1.1-0.6,2.3-0.9,3.7-0.9c1.3,0,2.5,0.3,3.6,0.8s1.9,1.3,2.5,2.3S34,11,34,12.3c0,0.4,0,0.9-0.1,1.4v0.6h-9.7c0,2,0.3,3.5,0.9,4.5
		c0.6,0.9,1.5,1.4,2.6,1.4c1,0,1.9-0.2,2.6-0.7c0.7-0.5,1.4-1.1,2-2l1,0.7c-0.6,1-1.4,1.8-2.3,2.4c-0.9,0.6-2.2,1-3.7,1
		C25.8,21.6,24.5,21.2,23.4,20.5z M29.7,12.8c0-2-0.2-3.4-0.7-4.3c-0.5-0.8-1.1-1.3-2-1.3c-0.8,0-1.5,0.4-2,1.3s-0.8,2.3-0.8,4.3
		H29.7z"/>
	<path class="st0" d="M37.6,10.3c0-1.1-0.1-1.9-0.4-2.4c-0.3-0.5-0.9-0.8-1.8-0.8h-0.3v-1h3.2c0.7,0,1.3,0.1,1.7,0.3
		c0.4,0.2,0.7,0.5,1,0.9c1.1-1,2.7-1.5,4.7-1.5s3.6,0.5,4.6,1.4c1,1,1.5,2.4,1.5,4.5v9.5h-4.2v-9.6c0-1.5-0.3-2.6-0.8-3.2
		c-0.5-0.7-1.3-1-2.2-1c-0.7,0-1.2,0.1-1.8,0.3c-0.5,0.2-0.9,0.4-1.2,0.7l0.1,0.5c0.1,0.3,0.1,0.7,0.1,1.3v11.1h-4.2
		C37.6,21.3,37.6,10.3,37.6,10.3z"/>
	<path class="st0" d="M56.1,10.3c0-1.1-0.2-1.9-0.5-2.4s-0.9-0.8-1.8-0.8h-0.3v-1h3.9c0.8,0,1.4,0.1,1.8,0.4
		c0.4,0.3,0.7,0.7,0.8,1.3c0.2,0.6,0.3,1.4,0.3,2.5v10.9h-4.2C56.1,21.2,56.1,10.3,56.1,10.3z M56.4,3.7C56,3.2,55.8,2.6,55.8,2
		s0.2-1,0.5-1.3s0.8-0.5,1.3-0.5c0.8,0,1.4,0.2,1.8,0.7S60,2,60,2.6s-0.2,1-0.5,1.3s-0.8,0.5-1.3,0.5C57.4,4.4,56.8,4.2,56.4,3.7z"
		/>
	<path class="st0" d="M72.7,10.3c0-1.1-0.2-1.9-0.5-2.4s-0.9-0.8-1.8-0.8h-0.3v-1H74c0.8,0,1.4,0.1,1.8,0.4c0.4,0.3,0.7,0.7,0.8,1.3
		c0.2,0.6,0.3,1.4,0.3,2.5v10.9h-4.2V10.3z M73,3.7c-0.4-0.5-0.6-1.1-0.6-1.7s0.2-1,0.5-1.3s0.8-0.5,1.3-0.5c0.8,0,1.4,0.2,1.8,0.7
		s0.6,1.1,0.6,1.7s-0.2,1-0.5,1.3s-0.8,0.5-1.3,0.5C74,4.4,73.4,4.2,73,3.7z"/>
	<path class="st0" d="M81.4,4.2c0-1.1-0.2-1.9-0.5-2.4S80,1,79.1,1h-0.3V0h3.9c0.8,0,1.4,0.1,1.8,0.4s0.7,0.7,0.9,1.3
		c0.2,0.6,0.3,1.4,0.3,2.5v17h-4.2v-17H81.4z"/>
	<path class="st0" d="M90.6,19.4c-1.2-1.5-1.8-3.4-1.8-5.7s0.6-4.2,1.8-5.7c1.2-1.5,2.9-2.2,5.1-2.2c0.8,0,1.6,0.2,2.5,0.5
		c0.3,0.2,0.6,0.3,0.9,0.5V4.2c0-1.1-0.2-1.9-0.5-2.4S97.7,1,96.8,1h-0.3V0h3.9c0.8,0,1.4,0.1,1.8,0.4s0.7,0.7,0.9,1.3
		c0.2,0.6,0.3,1.4,0.3,2.5v17h-2.7l-1.1-1.4h-0.2c-0.2,0.3-0.5,0.6-0.9,0.9c-0.7,0.6-1.7,0.9-2.8,0.9C93.4,21.6,91.8,20.8,90.6,19.4
		z M98.4,19.1c0.2-0.2,0.5-0.6,0.7-1.1V8.2c-0.2-0.2-0.5-0.3-0.8-0.5c-0.7-0.3-1.3-0.5-2-0.5c-2.1,0-3.2,2.1-3.2,6.4
		c0,2,0.2,3.6,0.7,4.7c0.5,1.1,1.3,1.7,2.3,1.7C97,20.1,97.7,19.8,98.4,19.1z"/>
	<path class="st0" d="M116.9,6.8c1.1,0.7,2,1.6,2.6,2.8s0.9,2.5,0.9,4c0,1.7-0.3,3.1-0.9,4.3c-0.6,1.2-1.5,2.1-2.5,2.7
		c-1.1,0.6-2.3,0.9-3.6,0.9s-2.5-0.3-3.6-0.8s-1.9-1.3-2.5-2.3s-0.9-2.1-0.9-3.4c0-0.4,0-0.9,0.1-1.4l0.1-0.6h9.7
		c0-2-0.3-3.5-0.9-4.5c-0.6-0.9-1.5-1.4-2.6-1.4c-1,0-1.9,0.2-2.6,0.7s-1.4,1.1-2,2l-1-0.7c0.6-1,1.4-1.8,2.3-2.4s2.2-1,3.7-1
		C114.5,5.8,115.8,6.2,116.9,6.8z M110.6,14.6c0,2,0.2,3.4,0.7,4.3c0.5,0.8,1.1,1.3,2,1.3c0.8,0,1.5-0.4,2-1.3
		c0.5-0.9,0.8-2.3,0.8-4.3H110.6z"/>
	<path class="st0" d="M15,48.7c-0.4-0.3-0.7-0.6-0.9-0.9h-0.2l-1.1,1.4h-2.7v-17c0-1.1-0.2-1.9-0.5-2.4S8.7,29,7.8,29H7.5v-1h3.9
		c0.8,0,1.4,0.1,1.8,0.4s0.7,0.7,0.9,1.3c0.2,0.6,0.3,1.4,0.3,2.5v2.6c0.3-0.2,0.6-0.3,0.9-0.5c0.9-0.3,1.7-0.5,2.5-0.5
		c2.2,0,3.9,0.7,5.1,2.2c1.2,1.5,1.8,3.4,1.8,5.7s-0.6,4.2-1.8,5.7s-2.8,2.2-5,2.2C16.6,49.6,15.7,49.3,15,48.7z M19.5,46.4
		c0.5-1.2,0.7-2.7,0.7-4.7c0-4.3-1.1-6.4-3.2-6.4c-0.6,0-1.3,0.2-2,0.5c-0.3,0.2-0.6,0.3-0.8,0.5v9.8c0.2,0.4,0.4,0.8,0.7,1.1
		c0.6,0.7,1.4,1,2.2,1C18.2,48.2,19,47.6,19.5,46.4z"/>
	<path class="st0" d="M28.3,38.3c0-1.1-0.2-1.9-0.5-2.4s-0.9-0.8-1.8-0.8h-0.3v-1h3.9c0.8,0,1.4,0.1,1.8,0.4
		c0.4,0.3,0.7,0.7,0.9,1.3s0.3,1.4,0.3,2.5v10.9h-4.2V38.3H28.3z M28.6,31.7C28.2,31.2,28,30.6,28,30c0-0.6,0.2-1,0.5-1.3
		s0.8-0.5,1.3-0.5c0.8,0,1.4,0.2,1.8,0.7c0.4,0.5,0.6,1.1,0.6,1.7c0,0.6-0.2,1-0.5,1.3s-0.8,0.5-1.3,0.5
		C29.6,32.4,29,32.2,28.6,31.7z"/>
	<path class="st0" d="M47.4,35.4c0.2,0.3,0.3,0.5,0.3,0.5l-1.6,1.3c-0.2-0.2-0.3-0.4-0.6-0.6c-0.5-0.4-1-0.6-1.6-0.6
		c-1.2,0-2.2,0.3-2.9,1l0.1,0.5c0,0.4,0.1,0.7,0.1,1.1v10.8h-4.3V38.3c0-1.1-0.1-1.9-0.4-2.4c-0.3-0.5-0.9-0.8-1.8-0.8h-0.3v-1h3.2
		c0.7,0,1.3,0.1,1.7,0.3s0.7,0.5,1,0.9c1.2-1,2.5-1.5,4.1-1.5c0.9,0,1.7,0.2,2.3,0.6C47,34.8,47.2,35.1,47.4,35.4z"/>
	<path class="st0" d="M49.8,32.2c0-1.1-0.2-1.9-0.5-2.4S48.4,29,47.5,29h-0.3v-1h3.9c0.8,0,1.4,0.1,1.8,0.4s0.7,0.7,0.9,1.3
		c0.2,0.6,0.3,1.4,0.3,2.5v17h-4.2v-17H49.8z"/>
	<path class="st0" d="M58.6,38.3c0-1.1-0.2-1.9-0.5-2.4s-0.9-0.8-1.8-0.8H56v-1h3.9c0.8,0,1.4,0.1,1.8,0.4c0.4,0.3,0.7,0.7,0.9,1.3
		c0.2,0.6,0.3,1.4,0.3,2.5v10.9h-4.2V38.3H58.6z M58.9,31.7c-0.4-0.5-0.6-1.1-0.6-1.7c0-0.6,0.2-1,0.5-1.3s0.8-0.5,1.3-0.5
		c0.8,0,1.4,0.2,1.8,0.7s0.6,1.1,0.6,1.7c0,0.6-0.2,1-0.5,1.3s-0.8,0.5-1.3,0.5C59.9,32.4,59.3,32.2,58.9,31.7z"/>
	<path class="st0" d="M76.7,49c-0.8-0.4-1.5-1.1-2.2-2l-3.1-4.1v6.3h-4.2v-17c0-1.1-0.2-1.9-0.5-2.4S65.8,29,64.9,29h-0.3v-1h3.9
		c0.8,0,1.4,0.1,1.8,0.4s0.7,0.7,0.9,1.3c0.2,0.6,0.3,1.4,0.3,2.5v9.2l3.9-4.8c0.7-0.9,1.4-1.5,2.1-1.9c0.6-0.4,1.5-0.6,2.6-0.6h0.6
		v0.8c-0.6,0-1.2,0.1-1.7,0.4c-0.5,0.3-1,0.7-1.5,1.2l-3.1,3.8l4.3,5.7c1,1.4,2,2.2,3,2.4v0.8c-0.2,0.1-0.5,0.2-0.9,0.2
		c-0.5,0.1-0.9,0.1-1.3,0.1C78.4,49.6,77.5,49.4,76.7,49z"/>
	<path class="st0" d="M83.4,47.4c-1.2-1.5-1.8-3.4-1.8-5.7s0.6-4.2,1.8-5.7c1.2-1.5,2.9-2.2,5.1-2.2c0.8,0,1.6,0.2,2.5,0.5
		c0.3,0.2,0.6,0.3,0.9,0.5v-2.6c0-1.1-0.2-1.9-0.5-2.4S90.5,29,89.6,29h-0.3v-1h3.9c0.8,0,1.4,0.1,1.8,0.4s0.7,0.7,0.9,1.3
		c0.2,0.6,0.3,1.4,0.3,2.5v17h-2.7l-1.1-1.4h-0.2c-0.2,0.3-0.5,0.6-0.9,0.9c-0.7,0.6-1.7,0.9-2.8,0.9C86.3,49.6,84.6,48.9,83.4,47.4
		z M91.2,47.1c0.2-0.2,0.5-0.6,0.7-1.1v-9.8c-0.2-0.2-0.5-0.3-0.8-0.5c-0.7-0.3-1.3-0.5-2-0.5c-2.1,0-3.2,2.1-3.2,6.4
		c0,2,0.2,3.6,0.7,4.7c0.5,1.1,1.3,1.7,2.3,1.7C89.9,48.2,90.6,47.8,91.2,47.1z"/>
	<path class="st0" d="M109.8,34.9c1.1,0.7,2,1.6,2.6,2.8c0.6,1.2,0.9,2.5,0.9,4c0,1.7-0.3,3.1-0.9,4.3s-1.5,2.1-2.5,2.7
		c-1.1,0.6-2.3,0.9-3.6,0.9c-1.3,0-2.5-0.3-3.6-0.8s-1.9-1.3-2.5-2.3s-0.9-2.1-0.9-3.4c0-0.4,0-0.9,0.1-1.4l0.1-0.6h9.7
		c0-2-0.3-3.5-0.9-4.5c-0.6-0.9-1.5-1.4-2.6-1.4c-1,0-1.9,0.2-2.6,0.7s-1.4,1.1-2,2l-1-0.7c0.6-1,1.4-1.8,2.3-2.4
		c0.9-0.6,2.2-1,3.7-1C107.3,33.8,108.6,34.2,109.8,34.9z M103.5,42.6c0,2,0.2,3.4,0.7,4.3c0.5,0.8,1.1,1.3,2,1.3
		c0.8,0,1.5-0.4,2-1.3c0.5-0.9,0.8-2.3,0.8-4.3H103.5z"/>
</g>
</svg>
