<?xml version="1.0" encoding="utf-8"?>
<!-- Generator: Adobe Illustrator 25.2.3, SVG Export Plug-In . SVG Version: 6.00 Build 0)  -->
<svg version="1.1" id="Layer_1" xmlns="http://www.w3.org/2000/svg" xmlns:xlink="http://www.w3.org/1999/xlink" x="0px" y="0px"
	 viewBox="0 0 150.6 49.8" style="enable-background:new 0 0 150.6 49.8;" xml:space="preserve">
<style type="text/css">
	.st0{fill:#FFFFFF;}
</style>
<g>
	<path class="st0" d="M26.9,13.4l-5.5-8.3c-0.6-0.9-1.4-1.6-2-2.3c-0.7-0.6-1.5-1.1-2.1-1.1V1.1h3.4c1.1,0,2,0.3,2.9,1
		s1.5,1.5,2.2,2.4l4.3,6.4l6-9.8h2l-7,11.5v9h-4C26.9,21.6,26.9,13.4,26.9,13.4z"/>
	<path class="st0" d="M39.8,20.9c-1.1-0.6-1.9-1.6-2.6-2.7c-0.5-1.2-0.9-2.4-0.9-3.8c0-1.6,0.3-3,0.9-4.1s1.5-2,2.4-2.6
		c1.1-0.5,2.2-0.9,3.6-0.9c1.3,0,2.4,0.3,3.5,0.7c1.1,0.5,1.8,1.3,2.4,2.2c0.6,1,0.9,2,0.9,3.3c0,0.4,0,0.9-0.1,1.4V15h-9.4
		c0,1.9,0.3,3.4,0.9,4.4c0.5,0.9,1.5,1.4,2.6,1.4c1,0,1.8-0.2,2.6-0.6c0.6-0.5,1.4-1.1,1.9-1.9l1,0.6c-0.5,1-1.4,1.7-2.2,2.3
		c-0.9,0.5-2.1,1-3.6,1C42.1,21.9,40.9,21.5,39.8,20.9z M45.9,13.4c0-1.9-0.2-3.3-0.6-4.1C44.7,8.5,44.2,8,43.3,8
		c-0.7,0-1.5,0.4-1.9,1.3c-0.5,0.9-0.7,2.2-0.7,4.1H45.9z"/>
	<path class="st0" d="M53.5,11c0-1.1-0.1-1.8-0.4-2.3c-0.3-0.5-0.9-0.7-1.7-0.7h-0.3v-1h3.1c0.6,0,1.3,0.1,1.6,0.3
		c0.4,0.2,0.6,0.5,1,0.9c1.1-1,2.6-1.5,4.6-1.5c1.9,0,3.5,0.5,4.5,1.4c1,1,1.5,2.3,1.5,4.4v9.1h-4v-9.2c0-1.5-0.3-2.6-0.7-3.1
		c-0.5-0.6-1.3-1-2.1-1c-0.6,0-1.2,0.1-1.7,0.3c-0.5,0.2-0.9,0.4-1.2,0.6l0.1,0.5c0.1,0.3,0.1,0.6,0.1,1.3v10.7h-4
		C53.5,21.6,53.5,11,53.5,11z"/>
	<path class="st0" d="M71.4,11c0-1.1-0.2-1.8-0.5-2.3c-0.3-0.5-0.9-0.7-1.7-0.7h-0.3v-1h3.7c0.7,0,1.4,0.1,1.7,0.4
		C74.6,7.7,75,8,75.1,8.6c0.2,0.5,0.3,1.4,0.3,2.4v10.5h-4C71.4,21.5,71.4,11,71.4,11z M71.7,4.7c-0.4-0.5-0.5-1.1-0.5-1.6
		s0.2-1,0.5-1.3C72,1.5,72.4,1.3,73,1.3c0.7,0,1.4,0.2,1.7,0.6c0.4,0.5,0.5,1.1,0.5,1.6s-0.3,1.1-0.5,1.3c-0.2,0.2-0.7,0.5-1.3,0.5
		C72.6,5.3,72,5.1,71.7,4.7z"/>
	<path class="st0" d="M87.3,11c0-1.1-0.2-1.8-0.5-2.3s-0.9-0.7-1.7-0.7h-0.3v-1h3.7c0.7,0,1.4,0.1,1.7,0.4c0.4,0.3,0.6,0.6,0.7,1.3
		c0.2,0.5,0.3,1.4,0.3,2.4v10.5h-4V11H87.3z M87.6,4.7c-0.4-0.5-0.5-1.1-0.5-1.6s0.2-1,0.5-1.3c0.3-0.3,0.7-0.5,1.3-0.5
		c0.7,0,1.4,0.2,1.7,0.6C91,2.5,91.1,3,91.1,3.5s-0.2,1.1-0.5,1.3c-0.3,0.3-0.7,0.5-1.3,0.5C88.6,5.3,88.1,5.1,87.6,4.7z"/>
	<path class="st0" d="M95.7,5.1c0-1.1-0.2-1.8-0.5-2.3S94.3,2,93.5,2h-0.3v-1h3.7c0.7,0,1.4,0.1,1.7,0.4c0.5,0.2,0.9,0.6,1.1,1.2
		c0.2,0.5,0.3,1.4,0.3,2.4v16.4h-4L95.7,5.1L95.7,5.1z"/>
	<path class="st0" d="M104.6,19.8c-1.2-1.5-1.7-3.3-1.7-5.5s0.5-4,1.7-5.5s2.8-2.1,4.9-2.1c0.7,0,1.6,0.2,2.4,0.5
		c0.3,0.2,0.5,0.3,0.9,0.5V5.1c0-1.1-0.2-1.8-0.5-2.3C112,2.3,111.4,2,110.6,2h-0.3v-1h3.7c0.7,0,1.4,0.1,1.7,0.4
		c0.4,0.3,0.6,0.6,0.9,1.3c0.2,0.5,0.3,1.4,0.3,2.4v16.4h-2.6l-1.1-1.4H113c-0.2,0.3-0.5,0.5-0.9,0.9c-0.6,0.5-1.6,0.9-2.7,0.9
		C107.3,21.9,105.8,21.2,104.6,19.8z M112.2,19.5c0.2-0.2,0.5-0.5,0.6-1.1V8.9c-0.2-0.2-0.5-0.3-0.7-0.5c-0.6-0.3-1.3-0.5-1.9-0.5
		c-2,0-3.1,2-3.1,6.2c0,1.9,0.2,3.5,0.6,4.6s1.3,1.6,2.2,1.6C110.8,20.4,111.4,20.2,112.2,19.5z"/>
	<path class="st0" d="M129.9,7.7c1.1,0.6,1.9,1.6,2.6,2.7c0.5,1.2,0.9,2.4,0.9,3.8c0,1.6-0.3,3-0.9,4.1c-0.5,1.2-1.5,2-2.4,2.6
		c-1.1,0.5-2.2,0.9-3.5,0.9s-2.4-0.3-3.5-0.7c-1.1-0.5-1.8-1.3-2.4-2.2c-0.5-1-0.9-2-0.9-3.3c0-0.4,0-0.9,0.1-1.4l0.1-0.5h9.4
		c0-1.9-0.3-3.4-0.9-4.4c-0.5-0.9-1.5-1.4-2.6-1.4c-1,0-1.8,0.2-2.6,0.6c-0.6,0.5-1.4,1.1-1.9,1.9l-1-0.6c0.5-1,1.4-1.7,2.2-2.3
		c0.9-0.5,2.1-1,3.6-1C127.7,6.7,128.9,7,129.9,7.7z M123.9,15.1c0,1.9,0.2,3.3,0.6,4.1c0.5,0.7,1.1,1.3,1.9,1.3
		c0.7,0,1.5-0.4,1.9-1.3c0.5-0.9,0.7-2.2,0.7-4.1C129.1,15.1,123.9,15.1,123.9,15.1z"/>
	<path class="st0" d="M31.7,48.1c-0.4-0.3-0.6-0.5-0.9-0.9h-0.2l-1.1,1.4H27V32.1c0-1.1-0.2-1.8-0.5-2.3c-0.3-0.5-0.9-0.7-1.7-0.7
		h-0.3v-1h3.7c0.7,0,1.4,0.1,1.7,0.4c0.3,0.3,0.6,0.6,0.9,1.3c0.2,0.5,0.3,1.4,0.3,2.4v2.6c0.3-0.2,0.5-0.3,0.9-0.5
		c0.9-0.3,1.6-0.5,2.4-0.5c2.1,0,3.7,0.6,4.9,2.1c1.2,1.5,1.7,3.3,1.7,5.5c0,2.2-0.5,4-1.7,5.5c-1.2,1.5-2.7,2.1-4.8,2.1
		C33.2,48.9,32.4,48.6,31.7,48.1z M36.1,45.8c0.5-1.2,0.6-2.6,0.6-4.6c0-4.1-1.1-6.2-3.1-6.2c-0.5,0-1.3,0.2-1.9,0.5
		c-0.3,0.2-0.5,0.3-0.7,0.5v9.5c0.2,0.4,0.4,0.7,0.6,1.1c0.5,0.6,1.4,1,2.1,1C34.8,47.5,35.5,47,36.1,45.8z"/>
	<path class="st0" d="M44.6,38c0-1.1-0.2-1.8-0.5-2.3s-0.9-0.7-1.7-0.7H42v-1h3.7c0.7,0,1.4,0.1,1.7,0.4c0.4,0.3,0.6,0.6,0.9,1.3
		c0.2,0.5,0.3,1.4,0.3,2.4v10.5h-4L44.6,38L44.6,38z M44.8,31.7c-0.4-0.5-0.5-1.1-0.5-1.6c0-0.5,0.2-1,0.5-1.3
		c0.3-0.3,0.7-0.5,1.3-0.5c0.7,0,1.4,0.2,1.7,0.6c0.4,0.5,0.5,1.1,0.5,1.6s-0.2,1-0.5,1.3c-0.3,0.3-0.7,0.5-1.3,0.5
		C45.8,32.3,45.2,32.1,44.8,31.7z"/>
	<path class="st0" d="M63,35.2c0.2,0.3,0.3,0.5,0.3,0.5L61.7,37c-0.2-0.2-0.3-0.4-0.5-0.5c-0.5-0.4-1-0.5-1.6-0.5
		c-1.2,0-2.1,0.3-2.8,1l0.1,0.5c0,0.4,0.1,0.6,0.1,1.1v10.4h-4.1V38c0-1.1-0.1-1.8-0.4-2.3c-0.3-0.5-0.9-0.7-1.7-0.7h-0.3v-1h3.1
		c0.6,0,1.3,0.1,1.6,0.3c0.4,0.2,0.6,0.5,1,0.9c1.2-1,2.4-1.5,3.9-1.5c0.9,0,1.6,0.2,2.2,0.5C62.5,34.7,62.8,34.9,63,35.2z"/>
	<path class="st0" d="M65.3,32.1c0-1.1-0.2-1.8-0.5-2.3S63.9,29,63.1,29h-0.3v-1h3.7c0.7,0,1.4,0.1,1.7,0.4c0.4,0.3,0.6,0.6,0.9,1.3
		c0.2,0.5,0.3,1.4,0.3,2.4v16.4h-3.9L65.3,32.1L65.3,32.1z"/>
	<path class="st0" d="M73.7,38c0-1.1-0.2-1.8-0.5-2.3s-0.9-0.7-1.7-0.7h-0.3v-1H75c0.7,0,1.4,0.1,1.7,0.4c0.4,0.3,0.6,0.6,0.9,1.3
		c0.2,0.5,0.3,1.4,0.3,2.4v10.5h-4L73.7,38L73.7,38z M74,31.7c-0.4-0.5-0.5-1.1-0.5-1.6c0-0.5,0.2-1,0.5-1.3
		c0.3-0.3,0.7-0.5,1.3-0.5c0.7,0,1.4,0.2,1.7,0.6c0.4,0.5,0.5,1.1,0.5,1.6s-0.2,1-0.5,1.3c-0.3,0.3-0.7,0.5-1.3,0.5
		C75,32.3,74.4,32.1,74,31.7z"/>
	<path class="st0" d="M91.2,48.4c-0.7-0.4-1.5-1.1-2.1-1.9l-3-3.9v6.1h-4V32.1c0-1.1-0.2-1.8-0.5-2.3S80.7,29,79.9,29h-0.3v-1h3.7
		c0.7,0,1.4,0.1,1.7,0.4c0.4,0.3,0.6,0.6,0.9,1.3c0.2,0.5,0.3,1.4,0.3,2.4V41l3.7-4.7c0.6-0.9,1.4-1.5,2-1.8
		c0.5-0.4,1.5-0.5,2.6-0.5H95v0.7c-0.5,0-1.2,0.1-1.6,0.4c-0.5,0.3-1,0.6-1.5,1.2l-3,3.6l4.1,5.5c1,1.4,1.9,2.1,2.9,2.3v0.7
		c-0.2,0.1-0.5,0.2-0.9,0.2c-0.5,0.1-0.9,0.1-1.3,0.1C92.8,48.9,92,48.7,91.2,48.4z"/>
	<path class="st0" d="M97.6,46.8c-1.2-1.5-1.7-3.3-1.7-5.5c0-2.2,0.5-4,1.7-5.5c1.2-1.5,2.8-2.1,4.9-2.1c0.7,0,1.6,0.2,2.4,0.5
		c0.3,0.2,0.5,0.3,0.9,0.5v-2.6c0-1.1-0.2-1.8-0.5-2.3c-0.3-0.5-0.9-0.7-1.7-0.7h-0.3v-1h3.7c0.7,0,1.4,0.1,1.7,0.4
		c0.4,0.3,0.6,0.6,0.9,1.3c0.2,0.5,0.3,1.4,0.3,2.4v16.4h-2.6l-1.1-1.4H106c-0.2,0.3-0.5,0.5-0.9,0.9c-0.6,0.5-1.6,0.9-2.7,0.9
		C100.5,48.9,98.8,48.3,97.6,46.8z M105.2,46.5c0.2-0.2,0.5-0.5,0.6-1.1v-9.5c-0.2-0.2-0.5-0.3-0.7-0.5c-0.6-0.3-1.3-0.5-1.9-0.5
		c-2,0-3.1,2-3.1,6.2c0,1.9,0.2,3.5,0.6,4.6c0.4,1.1,1.3,1.6,2.2,1.6C103.9,47.5,104.6,47.2,105.2,46.5z"/>
	<path class="st0" d="M123.1,34.8c1.1,0.6,1.9,1.6,2.6,2.7c0.5,1.2,0.9,2.4,0.9,3.8c0,1.6-0.3,3-0.9,4.1c-0.5,1.2-1.5,2-2.4,2.6
		c-1.1,0.5-2.2,0.9-3.5,0.9c-1.3,0-2.4-0.3-3.5-0.7c-1.1-0.5-1.8-1.3-2.4-2.2c-0.5-1-0.9-2-0.9-3.3c0-0.4,0-0.9,0.1-1.4l0.1-0.5h9.4
		c0-1.9-0.3-3.4-0.9-4.4c-0.5-0.9-1.5-1.4-2.6-1.4c-1,0-1.8,0.2-2.6,0.6c-0.7,0.4-1.4,1.1-1.9,1.9l-1-0.6c0.5-1,1.4-1.7,2.2-2.3
		c0.9-0.5,2.1-1,3.6-1C120.7,33.7,122,34,123.1,34.8z M117.1,42.1c0,1.9,0.2,3.3,0.6,4.1c0.5,0.7,1.1,1.3,1.9,1.3
		c0.7,0,1.5-0.4,1.9-1.3c0.5-0.9,0.7-2.2,0.7-4.1H117.1z"/>
</g>
</svg>
