<?xml version="1.0" encoding="utf-8"?>
<!-- Generator: Adobe Illustrator 25.2.3, SVG Export Plug-In . SVG Version: 6.00 Build 0)  -->
<svg version="1.1" id="Layer_1" xmlns="http://www.w3.org/2000/svg" xmlns:xlink="http://www.w3.org/1999/xlink" x="0px" y="0px"
	 viewBox="0 0 150.6 49.8" style="enable-background:new 0 0 150.6 49.8;" xml:space="preserve">
<style type="text/css">
	.st0{fill:#FFFFFF;}
</style>
<g>
	<path class="st0" d="M25.1,13l-5.7-8.6C18.7,3.5,18,2.7,17.3,2c-0.8-0.7-1.5-1.1-2.2-1.1V0.2h3.5c1.1,0,2.1,0.3,3,1
		c0.9,0.7,1.6,1.5,2.3,2.5l4.4,6.6l6.2-10.1h2.1l-7.3,11.9v9.4h-4.2V13z"/>
	<path class="st0" d="M38.5,20.7c-1.1-0.7-2-1.6-2.6-2.8c-0.6-1.2-0.9-2.5-0.9-4c0-1.7,0.3-3.1,0.9-4.3c0.6-1.2,1.5-2.1,2.5-2.7
		C39.5,6.3,40.7,6,42.1,6c1.3,0,2.5,0.3,3.6,0.8c1.1,0.5,1.9,1.3,2.5,2.3c0.6,1,0.9,2.1,0.9,3.4c0,0.4,0,0.9-0.1,1.4L49,14.5h-9.7
		c0,2,0.3,3.5,0.9,4.5c0.6,0.9,1.5,1.4,2.6,1.4c1,0,1.9-0.2,2.6-0.7c0.7-0.5,1.4-1.1,2-2l1,0.7c-0.6,1-1.4,1.8-2.3,2.4
		c-0.9,0.6-2.2,1-3.7,1C40.9,21.8,39.6,21.4,38.5,20.7z M44.8,13c0-2-0.2-3.4-0.7-4.3c-0.5-0.8-1.1-1.3-2-1.3c-0.8,0-1.5,0.4-2,1.3
		c-0.5,0.9-0.8,2.3-0.8,4.3H44.8z"/>
	<path class="st0" d="M52.7,10.5c0-1.1-0.1-1.9-0.4-2.4c-0.3-0.5-0.9-0.8-1.8-0.8h-0.3v-1h3.2c0.7,0,1.3,0.1,1.7,0.3
		c0.4,0.2,0.7,0.5,1,0.9c1.1-1,2.7-1.5,4.7-1.5c2,0,3.6,0.5,4.6,1.4c1,1,1.5,2.4,1.5,4.5v9.5h-4.2v-9.6c0-1.5-0.3-2.6-0.8-3.2
		c-0.5-0.7-1.3-1-2.2-1c-0.7,0-1.2,0.1-1.8,0.3c-0.5,0.2-0.9,0.4-1.2,0.7l0.1,0.5c0.1,0.3,0.1,0.7,0.1,1.3v11.1h-4.2V10.5z"/>
	<path class="st0" d="M71.2,10.5c0-1.1-0.2-1.9-0.5-2.4c-0.3-0.5-0.9-0.8-1.8-0.8h-0.3v-1h3.9c0.8,0,1.4,0.1,1.8,0.4
		C74.7,7,75,7.4,75.1,8c0.2,0.6,0.3,1.4,0.3,2.5v10.9h-4.2V10.5z M71.5,3.9c-0.4-0.5-0.6-1.1-0.6-1.7c0-0.6,0.2-1,0.5-1.3
		c0.3-0.3,0.8-0.5,1.3-0.5c0.8,0,1.4,0.2,1.8,0.7c0.4,0.5,0.6,1.1,0.6,1.7c0,0.6-0.2,1-0.5,1.3c-0.3,0.3-0.8,0.5-1.3,0.5
		C72.5,4.6,71.9,4.4,71.5,3.9z"/>
	<path class="st0" d="M87.8,10.5c0-1.1-0.2-1.9-0.5-2.4c-0.3-0.5-0.9-0.8-1.8-0.8h-0.3v-1h3.9c0.8,0,1.4,0.1,1.8,0.4
		C91.3,7,91.6,7.4,91.7,8c0.2,0.6,0.3,1.4,0.3,2.5v10.9h-4.2V10.5z M88.1,3.9c-0.4-0.5-0.6-1.1-0.6-1.7c0-0.6,0.2-1,0.5-1.3
		c0.3-0.3,0.8-0.5,1.3-0.5c0.8,0,1.4,0.2,1.8,0.7c0.4,0.5,0.6,1.1,0.6,1.7c0,0.6-0.2,1-0.5,1.3c-0.3,0.3-0.8,0.5-1.3,0.5
		C89.1,4.6,88.5,4.4,88.1,3.9z"/>
	<path class="st0" d="M96.5,4.4c0-1.1-0.2-1.9-0.5-2.4c-0.3-0.5-0.9-0.8-1.8-0.8h-0.3v-1h3.9c0.8,0,1.4,0.1,1.8,0.4
		c0.4,0.3,0.7,0.7,0.9,1.3c0.2,0.6,0.3,1.4,0.3,2.5v17h-4.2V4.4z"/>
	<path class="st0" d="M105.7,19.6c-1.2-1.5-1.8-3.4-1.8-5.7c0-2.3,0.6-4.2,1.8-5.7c1.2-1.5,2.9-2.2,5.1-2.2c0.8,0,1.6,0.2,2.5,0.5
		c0.3,0.2,0.6,0.3,0.9,0.5V4.4c0-1.1-0.2-1.9-0.5-2.4c-0.3-0.5-0.9-0.8-1.8-0.8h-0.3v-1h3.9c0.8,0,1.4,0.1,1.8,0.4
		c0.4,0.3,0.7,0.7,0.9,1.3c0.2,0.6,0.3,1.4,0.3,2.5v17h-2.7l-1.1-1.4h-0.2c-0.2,0.3-0.5,0.6-0.9,0.9c-0.7,0.6-1.7,0.9-2.8,0.9
		C108.5,21.8,106.9,21,105.7,19.6z M113.5,19.3c0.2-0.2,0.5-0.6,0.7-1.1V8.4c-0.2-0.2-0.5-0.3-0.8-0.5c-0.7-0.3-1.3-0.5-2-0.5
		c-2.1,0-3.2,2.1-3.2,6.4c0,2,0.2,3.6,0.7,4.7c0.5,1.1,1.3,1.7,2.3,1.7C112.1,20.3,112.8,20,113.5,19.3z"/>
	<path class="st0" d="M132,7c1.1,0.7,2,1.6,2.6,2.8c0.6,1.2,0.9,2.5,0.9,4c0,1.7-0.3,3.1-0.9,4.3c-0.6,1.2-1.5,2.1-2.5,2.7
		c-1.1,0.6-2.3,0.9-3.6,0.9c-1.3,0-2.5-0.3-3.6-0.8c-1.1-0.5-1.9-1.3-2.5-2.3c-0.6-1-0.9-2.1-0.9-3.4c0-0.4,0-0.9,0.1-1.4l0.1-0.6
		h9.7c0-2-0.3-3.5-0.9-4.5c-0.6-0.9-1.5-1.4-2.6-1.4c-1,0-1.9,0.2-2.6,0.7c-0.7,0.5-1.4,1.1-2,2l-1-0.7c0.6-1,1.4-1.8,2.3-2.4
		s2.2-1,3.7-1C129.6,6,130.9,6.4,132,7z M125.7,14.8c0,2,0.2,3.4,0.7,4.3c0.5,0.8,1.1,1.3,2,1.3c0.8,0,1.5-0.4,2-1.3
		c0.5-0.9,0.8-2.3,0.8-4.3H125.7z"/>
	<path class="st0" d="M30.1,48.9c-0.4-0.3-0.7-0.6-0.9-0.9H29l-1.1,1.4h-2.7v-17c0-1.1-0.2-1.9-0.5-2.4c-0.3-0.5-0.9-0.8-1.8-0.8
		h-0.3v-1h3.9c0.8,0,1.4,0.1,1.8,0.4c0.4,0.3,0.7,0.7,0.9,1.3c0.2,0.6,0.3,1.4,0.3,2.5V35c0.3-0.2,0.6-0.3,0.9-0.5
		c0.9-0.3,1.7-0.5,2.5-0.5c2.2,0,3.9,0.7,5.1,2.2c1.2,1.5,1.8,3.4,1.8,5.7c0,2.3-0.6,4.2-1.8,5.7c-1.2,1.5-2.8,2.2-5,2.2
		C31.7,49.8,30.8,49.5,30.1,48.9z M34.6,46.6c0.5-1.2,0.7-2.7,0.7-4.7c0-4.3-1.1-6.4-3.2-6.4c-0.6,0-1.3,0.2-2,0.5
		c-0.3,0.2-0.6,0.3-0.8,0.5v9.8c0.2,0.4,0.4,0.8,0.7,1.1c0.6,0.7,1.4,1,2.2,1C33.3,48.4,34.1,47.8,34.6,46.6z"/>
	<path class="st0" d="M43.4,38.5c0-1.1-0.2-1.9-0.5-2.4c-0.3-0.5-0.9-0.8-1.8-0.8h-0.3v-1h3.9c0.8,0,1.4,0.1,1.8,0.4
		c0.4,0.3,0.7,0.7,0.9,1.3c0.2,0.6,0.3,1.4,0.3,2.5v10.9h-4.2V38.5z M43.7,31.9c-0.4-0.5-0.6-1.1-0.6-1.7c0-0.6,0.2-1,0.5-1.3
		c0.3-0.3,0.8-0.5,1.3-0.5c0.8,0,1.4,0.2,1.8,0.7c0.4,0.5,0.6,1.1,0.6,1.7c0,0.6-0.2,1-0.5,1.3c-0.3,0.3-0.8,0.5-1.3,0.5
		C44.7,32.6,44.1,32.4,43.7,31.9z"/>
	<path class="st0" d="M62.5,35.6c0.2,0.3,0.3,0.5,0.3,0.5l-1.6,1.3c-0.2-0.2-0.3-0.4-0.6-0.6c-0.5-0.4-1-0.6-1.6-0.6
		c-1.2,0-2.2,0.3-2.9,1l0.1,0.5c0,0.4,0.1,0.7,0.1,1.1v10.8H52V38.5c0-1.1-0.1-1.9-0.4-2.4c-0.3-0.5-0.9-0.8-1.8-0.8h-0.3v-1h3.2
		c0.7,0,1.3,0.1,1.7,0.3c0.4,0.2,0.7,0.5,1,0.9c1.2-1,2.5-1.5,4.1-1.5c0.9,0,1.7,0.2,2.3,0.6C62.1,35,62.3,35.3,62.5,35.6z"/>
	<path class="st0" d="M64.9,32.4c0-1.1-0.2-1.9-0.5-2.4c-0.3-0.5-0.9-0.8-1.8-0.8h-0.3v-1h3.9c0.8,0,1.4,0.1,1.8,0.4
		c0.4,0.3,0.7,0.7,0.9,1.3c0.2,0.6,0.3,1.4,0.3,2.5v17h-4.2V32.4z"/>
	<path class="st0" d="M73.7,38.5c0-1.1-0.2-1.9-0.5-2.4c-0.3-0.5-0.9-0.8-1.8-0.8h-0.3v-1H75c0.8,0,1.4,0.1,1.8,0.4
		c0.4,0.3,0.7,0.7,0.9,1.3c0.2,0.6,0.3,1.4,0.3,2.5v10.9h-4.2V38.5z M74,31.9c-0.4-0.5-0.6-1.1-0.6-1.7c0-0.6,0.2-1,0.5-1.3
		c0.3-0.3,0.8-0.5,1.3-0.5c0.8,0,1.4,0.2,1.8,0.7c0.4,0.5,0.6,1.1,0.6,1.7c0,0.6-0.2,1-0.5,1.3c-0.3,0.3-0.8,0.5-1.3,0.5
		C75,32.6,74.4,32.4,74,31.9z"/>
	<path class="st0" d="M91.8,49.2c-0.8-0.4-1.5-1.1-2.2-2l-3.1-4.1v6.3h-4.2v-17c0-1.1-0.2-1.9-0.5-2.4c-0.3-0.5-0.9-0.8-1.8-0.8
		h-0.3v-1h3.9c0.8,0,1.4,0.1,1.8,0.4c0.4,0.3,0.7,0.7,0.9,1.3c0.2,0.6,0.3,1.4,0.3,2.5v9.2l3.9-4.8c0.7-0.9,1.4-1.5,2.1-1.9
		c0.6-0.4,1.5-0.6,2.6-0.6h0.6v0.8c-0.6,0-1.2,0.1-1.7,0.4c-0.5,0.3-1,0.7-1.5,1.2l-3.1,3.8l4.3,5.7c1,1.4,2,2.2,3,2.4v0.8
		c-0.2,0.1-0.5,0.2-0.9,0.2c-0.5,0.1-0.9,0.1-1.3,0.1C93.5,49.8,92.6,49.6,91.8,49.2z"/>
	<path class="st0" d="M98.5,47.6c-1.2-1.5-1.8-3.4-1.8-5.7c0-2.3,0.6-4.2,1.8-5.7c1.2-1.5,2.9-2.2,5.1-2.2c0.8,0,1.6,0.2,2.5,0.5
		c0.3,0.2,0.6,0.3,0.9,0.5v-2.6c0-1.1-0.2-1.9-0.5-2.4c-0.3-0.5-0.9-0.8-1.8-0.8h-0.3v-1h3.9c0.8,0,1.4,0.1,1.8,0.4
		c0.4,0.3,0.7,0.7,0.9,1.3c0.2,0.6,0.3,1.4,0.3,2.5v17h-2.7l-1.1-1.4h-0.2c-0.2,0.3-0.5,0.6-0.9,0.9c-0.7,0.6-1.7,0.9-2.8,0.9
		C101.4,49.8,99.7,49.1,98.5,47.6z M106.3,47.3c0.2-0.2,0.5-0.6,0.7-1.1v-9.8c-0.2-0.2-0.5-0.3-0.8-0.5c-0.7-0.3-1.3-0.5-2-0.5
		c-2.1,0-3.2,2.1-3.2,6.4c0,2,0.2,3.6,0.7,4.7c0.5,1.1,1.3,1.7,2.3,1.7C105,48.4,105.7,48,106.3,47.3z"/>
	<path class="st0" d="M124.9,35.1c1.1,0.7,2,1.6,2.6,2.8c0.6,1.2,0.9,2.5,0.9,4c0,1.7-0.3,3.1-0.9,4.3c-0.6,1.2-1.5,2.1-2.5,2.7
		c-1.1,0.6-2.3,0.9-3.6,0.9c-1.3,0-2.5-0.3-3.6-0.8c-1.1-0.5-1.9-1.3-2.5-2.3c-0.6-1-0.9-2.1-0.9-3.4c0-0.4,0-0.9,0.1-1.4l0.1-0.6
		h9.7c0-2-0.3-3.5-0.9-4.5c-0.6-0.9-1.5-1.4-2.6-1.4c-1,0-1.9,0.2-2.6,0.7c-0.7,0.5-1.4,1.1-2,2l-1-0.7c0.6-1,1.4-1.8,2.3-2.4
		c0.9-0.6,2.2-1,3.7-1C122.4,34,123.7,34.4,124.9,35.1z M118.6,42.8c0,2,0.2,3.4,0.7,4.3c0.5,0.8,1.1,1.3,2,1.3c0.8,0,1.5-0.4,2-1.3
		c0.5-0.9,0.8-2.3,0.8-4.3H118.6z"/>
</g>
</svg>
