<?xml version="1.0" encoding="utf-8"?>
<!-- Generator: Adobe Illustrator 25.2.3, SVG Export Plug-In . SVG Version: 6.00 Build 0)  -->
<svg version="1.1" id="Layer_1" xmlns="http://www.w3.org/2000/svg" xmlns:xlink="http://www.w3.org/1999/xlink" x="0px" y="0px"
	 viewBox="0 0 255.4 25.3" style="enable-background:new 0 0 255.4 25.3;" xml:space="preserve">
<style type="text/css">
	.st0{fill:#FFFFFF;}
</style>
<g>
	<path class="st0" d="M11,15.7L4.8,6.4c-0.7-1-1.5-1.9-2.3-2.6C1.7,3.1,0.9,2.7,0.2,2.6V1.9H4c1.2,0,2.3,0.4,3.2,1.1
		c1,0.7,1.8,1.7,2.5,2.7l4.7,7.2l6.8-11h2.3l-7.9,12.9V25H11V15.7z"/>
	<path class="st0" d="M25.6,24.2c-1.2-0.7-2.1-1.8-2.8-3.1c-0.7-1.3-1-2.8-1-4.4c0-1.8,0.3-3.4,1-4.6c0.7-1.3,1.6-2.3,2.7-2.9
		c1.2-0.7,2.5-1,3.9-1c1.4,0,2.7,0.3,3.9,0.9c1.2,0.6,2.1,1.4,2.8,2.5c0.7,1.1,1,2.3,1,3.6c0,0.4,0,0.9-0.1,1.5L37,17.4H26.5
		c0,2.2,0.3,3.8,1,4.8c0.7,1,1.6,1.5,2.8,1.5c1.1,0,2.1-0.3,2.8-0.8c0.8-0.5,1.5-1.2,2.2-2.1l1.1,0.8c-0.7,1-1.5,1.9-2.5,2.6
		s-2.4,1-4.1,1C28.2,25.3,26.8,24.9,25.6,24.2z M32.5,15.8c0-2.2-0.3-3.7-0.8-4.7c-0.5-0.9-1.2-1.4-2.2-1.4c-0.9,0-1.6,0.5-2.1,1.4
		c-0.5,0.9-0.8,2.5-0.8,4.6H32.5z"/>
	<path class="st0" d="M41.1,13.1c0-1.2-0.2-2.1-0.5-2.6c-0.3-0.6-1-0.9-1.9-0.9h-0.3v-1h3.5c0.8,0,1.4,0.1,1.9,0.3
		c0.5,0.2,0.8,0.5,1.1,1c1.2-1.1,2.9-1.6,5.1-1.6c2.2,0,3.9,0.5,5,1.6c1.1,1,1.7,2.7,1.7,4.9V25h-4.5V14.6c0-1.6-0.3-2.8-0.9-3.5
		c-0.6-0.7-1.4-1.1-2.4-1.1c-0.7,0-1.4,0.1-1.9,0.3c-0.5,0.2-1,0.5-1.3,0.8l0.1,0.5c0.1,0.3,0.1,0.7,0.1,1.4V25h-4.5V13.1z"/>
	<path class="st0" d="M61.1,13.1c0-1.2-0.2-2.1-0.5-2.6c-0.3-0.6-1-0.9-2-0.9h-0.3v-1h4.2c0.8,0,1.5,0.1,1.9,0.4
		c0.4,0.3,0.8,0.7,0.9,1.4c0.2,0.6,0.3,1.6,0.3,2.7V25h-4.5V13.1z M61.5,5.9C61,5.4,60.8,4.7,60.8,4c0-0.6,0.2-1.1,0.5-1.4
		C61.7,2.2,62.2,2,62.7,2c0.8,0,1.5,0.3,1.9,0.8c0.5,0.5,0.7,1.1,0.7,1.9c0,0.6-0.2,1.1-0.5,1.4c-0.4,0.3-0.8,0.5-1.4,0.5
		C62.6,6.6,61.9,6.4,61.5,5.9z"/>
	<path class="st0" d="M79.2,13.1c0-1.2-0.2-2.1-0.5-2.6c-0.3-0.6-1-0.9-2-0.9h-0.3v-1h4.2c0.8,0,1.5,0.1,1.9,0.4
		c0.4,0.3,0.8,0.7,0.9,1.4c0.2,0.6,0.3,1.6,0.3,2.7V25h-4.5V13.1z M79.5,5.9c-0.5-0.5-0.7-1.1-0.7-1.9c0-0.6,0.2-1.1,0.5-1.4
		C79.8,2.2,80.2,2,80.8,2c0.8,0,1.5,0.3,1.9,0.8c0.5,0.5,0.7,1.1,0.7,1.9c0,0.6-0.2,1.1-0.5,1.4c-0.4,0.3-0.8,0.5-1.4,0.5
		C80.6,6.6,80,6.4,79.5,5.9z"/>
	<path class="st0" d="M88.6,6.4c0-1.2-0.2-2.1-0.5-2.6c-0.3-0.6-1-0.9-2-0.9h-0.3v-1H90c0.8,0,1.5,0.1,1.9,0.4
		c0.4,0.3,0.8,0.7,0.9,1.4c0.2,0.6,0.3,1.6,0.3,2.7V25h-4.5V6.4z"/>
	<path class="st0" d="M98.6,22.9c-1.3-1.6-1.9-3.6-1.9-6.2c0-2.5,0.6-4.6,1.9-6.2c1.3-1.6,3.1-2.4,5.6-2.4c0.8,0,1.7,0.2,2.7,0.5
		c0.3,0.2,0.7,0.3,1,0.5V6.4c0-1.2-0.2-2.1-0.5-2.6c-0.3-0.6-1-0.9-2-0.9h-0.3v-1h4.2c0.8,0,1.5,0.1,1.9,0.4
		c0.4,0.3,0.8,0.7,0.9,1.4c0.2,0.6,0.3,1.6,0.3,2.7V25h-3l-1.2-1.6h-0.2c-0.2,0.3-0.5,0.7-1,1c-0.8,0.6-1.8,0.9-3,0.9
		C101.7,25.3,99.9,24.5,98.6,22.9z M107.1,22.6c0.3-0.3,0.5-0.6,0.8-1.2V10.8c-0.2-0.2-0.5-0.4-0.8-0.5c-0.7-0.3-1.5-0.5-2.1-0.5
		c-2.3,0-3.5,2.3-3.5,7c0,2.2,0.3,3.9,0.8,5.1c0.5,1.2,1.4,1.9,2.5,1.9C105.6,23.7,106.4,23.4,107.1,22.6z"/>
	<path class="st0" d="M127.2,9.3c1.2,0.7,2.1,1.8,2.8,3.1s1,2.8,1,4.4c0,1.8-0.3,3.4-1,4.6c-0.7,1.3-1.6,2.3-2.7,2.9
		c-1.2,0.7-2.5,1-3.9,1c-1.4,0-2.7-0.3-3.9-0.9c-1.2-0.6-2.1-1.4-2.8-2.5c-0.7-1.1-1-2.3-1-3.6c0-0.4,0-0.9,0.1-1.5l0.1-0.7h10.5
		c0-2.2-0.3-3.8-1-4.8c-0.7-1-1.6-1.5-2.8-1.5c-1.1,0-2.1,0.3-2.8,0.8c-0.8,0.5-1.5,1.2-2.2,2.1l-1.1-0.8c0.7-1,1.5-1.9,2.5-2.6
		s2.4-1,4.1-1C124.6,8.2,126,8.6,127.2,9.3z M120.3,17.7c0,2.2,0.3,3.7,0.8,4.7c0.5,0.9,1.2,1.4,2.2,1.4c0.9,0,1.6-0.5,2.1-1.4
		c0.5-0.9,0.8-2.5,0.8-4.6H120.3z"/>
	<path class="st0" d="M148.4,24.4c-0.4-0.3-0.7-0.6-0.9-1h-0.2l-1.2,1.6h-3V6.4c0-1.2-0.2-2.1-0.5-2.6c-0.3-0.6-1-0.9-2-0.9h-0.3v-1
		h4.2c0.8,0,1.5,0.1,1.9,0.4c0.4,0.3,0.8,0.7,0.9,1.4c0.2,0.6,0.3,1.6,0.3,2.7v2.8c0.3-0.2,0.6-0.4,1-0.5c1-0.3,1.9-0.5,2.7-0.5
		c2.4,0,4.3,0.8,5.6,2.4c1.3,1.6,1.9,3.6,1.9,6.2c0,2.5-0.6,4.6-1.9,6.2c-1.3,1.6-3.1,2.4-5.4,2.4C150.2,25.3,149.2,25,148.4,24.4z
		 M153.3,21.8c0.5-1.3,0.8-3,0.8-5.1c0-4.7-1.2-7-3.5-7c-0.7,0-1.4,0.2-2.1,0.5c-0.3,0.2-0.6,0.4-0.8,0.5v10.7
		c0.2,0.5,0.5,0.9,0.8,1.2c0.7,0.7,1.5,1.1,2.4,1.1C151.9,23.7,152.8,23.1,153.3,21.8z"/>
	<path class="st0" d="M162.9,13.1c0-1.2-0.2-2.1-0.5-2.6c-0.3-0.6-1-0.9-2-0.9h-0.3v-1h4.2c0.8,0,1.5,0.1,1.9,0.4
		c0.4,0.3,0.8,0.7,0.9,1.4c0.2,0.6,0.3,1.6,0.3,2.7V25h-4.5V13.1z M163.2,5.9c-0.5-0.5-0.7-1.1-0.7-1.9c0-0.6,0.2-1.1,0.5-1.4
		c0.4-0.3,0.8-0.5,1.4-0.5c0.8,0,1.5,0.3,1.9,0.8c0.5,0.5,0.7,1.1,0.7,1.9c0,0.6-0.2,1.1-0.5,1.4c-0.4,0.3-0.8,0.5-1.4,0.5
		C164.3,6.6,163.7,6.4,163.2,5.9z"/>
	<path class="st0" d="M183.7,9.9c0.2,0.4,0.3,0.6,0.3,0.6l-1.8,1.4c-0.2-0.2-0.4-0.4-0.6-0.7c-0.5-0.5-1.1-0.7-1.8-0.7
		c-1.4,0-2.4,0.4-3.1,1.1l0.1,0.5c0,0.4,0.1,0.8,0.1,1.2V25h-4.5V13.1c0-1.2-0.2-2.1-0.5-2.6c-0.3-0.6-1-0.9-1.9-0.9h-0.3v-1h3.5
		c0.8,0,1.4,0.1,1.9,0.3c0.5,0.2,0.8,0.5,1.1,1c1.3-1.1,2.7-1.6,4.4-1.6c1,0,1.8,0.2,2.5,0.7C183.2,9.2,183.5,9.5,183.7,9.9z"/>
	<path class="st0" d="M186.3,6.4c0-1.2-0.2-2.1-0.5-2.6c-0.3-0.6-1-0.9-2-0.9h-0.3v-1h4.2c0.8,0,1.5,0.1,1.9,0.4
		c0.4,0.3,0.8,0.7,0.9,1.4c0.2,0.6,0.3,1.6,0.3,2.7V25h-4.5V6.4z"/>
	<path class="st0" d="M195.8,13.1c0-1.2-0.2-2.1-0.5-2.6c-0.3-0.6-1-0.9-2-0.9H193v-1h4.2c0.8,0,1.5,0.1,1.9,0.4
		c0.4,0.3,0.8,0.7,0.9,1.4c0.2,0.6,0.3,1.6,0.3,2.7V25h-4.5V13.1z M196.2,5.9c-0.5-0.5-0.7-1.1-0.7-1.9c0-0.6,0.2-1.1,0.5-1.4
		c0.4-0.3,0.8-0.5,1.4-0.5c0.8,0,1.5,0.3,1.9,0.8c0.5,0.5,0.7,1.1,0.7,1.9c0,0.6-0.2,1.1-0.5,1.4c-0.4,0.3-0.8,0.5-1.4,0.5
		C197.3,6.6,196.6,6.4,196.2,5.9z"/>
	<path class="st0" d="M215.5,24.7c-0.9-0.4-1.6-1.1-2.4-2.1l-3.4-4.4V25h-4.5V6.4c0-1.2-0.2-2.1-0.5-2.6c-0.3-0.6-1-0.9-2-0.9h-0.3
		v-1h4.2c0.8,0,1.5,0.1,1.9,0.4c0.4,0.3,0.8,0.7,0.9,1.4c0.2,0.6,0.3,1.6,0.3,2.7v10l4.2-5.2c0.8-1,1.5-1.6,2.2-2.1
		c0.7-0.4,1.6-0.6,2.8-0.6h0.7v0.9c-0.7,0-1.3,0.1-1.9,0.4c-0.6,0.3-1.1,0.7-1.6,1.3l-3.4,4.1l4.6,6.1c1.1,1.5,2.2,2.4,3.2,2.7V25
		c-0.2,0.1-0.5,0.2-1,0.2c-0.5,0.1-1,0.1-1.4,0.1C217.3,25.3,216.4,25.1,215.5,24.7z"/>
	<path class="st0" d="M222.8,22.9c-1.3-1.6-1.9-3.6-1.9-6.2c0-2.5,0.6-4.6,1.9-6.2c1.3-1.6,3.1-2.4,5.6-2.4c0.8,0,1.7,0.2,2.7,0.5
		c0.3,0.2,0.7,0.3,1,0.5V6.4c0-1.2-0.2-2.1-0.5-2.6c-0.3-0.6-1-0.9-2-0.9h-0.3v-1h4.2c0.8,0,1.5,0.1,1.9,0.4
		c0.4,0.3,0.8,0.7,0.9,1.4c0.2,0.6,0.3,1.6,0.3,2.7V25h-3l-1.2-1.6h-0.2c-0.2,0.3-0.5,0.7-1,1c-0.8,0.6-1.8,0.9-3,0.9
		C225.9,25.3,224.1,24.5,222.8,22.9z M231.3,22.6c0.3-0.3,0.5-0.6,0.8-1.2V10.8c-0.2-0.2-0.5-0.4-0.8-0.5c-0.7-0.3-1.5-0.5-2.1-0.5
		c-2.3,0-3.5,2.3-3.5,7c0,2.2,0.3,3.9,0.8,5.1c0.5,1.2,1.4,1.9,2.5,1.9C229.8,23.7,230.6,23.4,231.3,22.6z"/>
	<path class="st0" d="M251.4,9.3c1.2,0.7,2.1,1.8,2.8,3.1c0.7,1.3,1,2.8,1,4.4c0,1.8-0.3,3.4-1,4.6c-0.7,1.3-1.6,2.3-2.7,2.9
		c-1.2,0.7-2.5,1-3.9,1c-1.4,0-2.7-0.3-3.9-0.9c-1.2-0.6-2.1-1.4-2.8-2.5c-0.7-1.1-1-2.3-1-3.6c0-0.4,0-0.9,0.1-1.5l0.1-0.7h10.5
		c0-2.2-0.3-3.8-1-4.8c-0.7-1-1.6-1.5-2.8-1.5c-1.1,0-2.1,0.3-2.8,0.8c-0.8,0.5-1.5,1.2-2.2,2.1l-1.1-0.8c0.7-1,1.5-1.9,2.5-2.6
		s2.4-1,4.1-1C248.8,8.2,250.2,8.6,251.4,9.3z M244.5,17.7c0,2.2,0.3,3.7,0.8,4.7c0.5,0.9,1.2,1.4,2.2,1.4c0.9,0,1.6-0.5,2.1-1.4
		c0.5-0.9,0.8-2.5,0.8-4.6H244.5z"/>
</g>
</svg>
