<?xml version="1.0" encoding="utf-8"?>
<!-- Generator: Adobe Illustrator 25.2.3, SVG Export Plug-In . SVG Version: 6.00 Build 0)  -->
<svg version="1.1" id="Layer_1" xmlns="http://www.w3.org/2000/svg" xmlns:xlink="http://www.w3.org/1999/xlink" x="0px" y="0px"
	 viewBox="0 0 427.5 39.2" style="enable-background:new 0 0 427.5 39.2;" xml:space="preserve">
<style type="text/css">
	.st0{fill:#FFFFFF;}
</style>
<g>
	<path class="st0" d="M18.2,23.2L7.8,7.6C6.6,5.9,5.3,4.5,4,3.2C2.6,2,1.2,1.3,0,1.2V0h6.4c2,0,3.8,0.6,5.4,1.9
		c1.6,1.2,3,2.8,4.1,4.6l8,12L35.3,0h3.8L25.8,21.6v17h-7.6V23.2z"/>
	<path class="st0" d="M42.6,37.4c-2-1.2-3.6-3-4.7-5.1c-1.1-2.2-1.7-4.6-1.7-7.3c0-3,0.6-5.6,1.7-7.8c1.1-2.1,2.6-3.8,4.6-4.9
		c2-1.1,4.2-1.7,6.6-1.7c2.4,0,4.6,0.5,6.6,1.5c2,1,3.5,2.4,4.6,4.1c1.1,1.8,1.7,3.8,1.7,6.1c0,0.7,0,1.6-0.1,2.5l-0.1,1.2H44.2
		c0,3.7,0.6,6.4,1.7,8.1c1.1,1.7,2.7,2.5,4.7,2.5c1.9,0,3.4-0.4,4.7-1.3c1.3-0.8,2.5-2,3.7-3.6l1.8,1.3c-1.1,1.8-2.5,3.2-4.2,4.4
		s-4,1.8-6.8,1.8C47,39.2,44.7,38.6,42.6,37.4z M54.1,23.3c0-3.7-0.4-6.3-1.3-7.8c-0.9-1.5-2.1-2.3-3.7-2.3c-1.5,0-2.7,0.8-3.6,2.4
		c-0.9,1.6-1.4,4.2-1.4,7.8H54.1z"/>
	<path class="st0" d="M68.6,18.7c0-2-0.3-3.5-0.8-4.4c-0.5-1-1.6-1.4-3.2-1.4h-0.6v-1.8h5.8c1.3,0,2.4,0.2,3.1,0.5
		c0.8,0.3,1.4,0.9,1.8,1.7c2-1.8,4.8-2.8,8.5-2.8c3.7,0,6.5,0.9,8.3,2.6c1.9,1.7,2.8,4.5,2.8,8.2v17.3h-7.6V21.3
		c0-2.7-0.5-4.7-1.5-5.9c-1-1.2-2.4-1.9-4.1-1.9c-1.2,0-2.3,0.2-3.2,0.5c-0.9,0.3-1.6,0.8-2.2,1.3l0.2,0.8c0.2,0.5,0.2,1.2,0.2,2.3
		v20.3h-7.6V18.7z"/>
	<path class="st0" d="M102.2,18.7c0-2-0.3-3.5-0.8-4.4c-0.5-1-1.6-1.4-3.3-1.4h-0.6v-1.8h7c1.4,0,2.5,0.2,3.2,0.7
		c0.7,0.5,1.3,1.2,1.6,2.3c0.3,1.1,0.5,2.6,0.5,4.6v19.9h-7.6V18.7z M102.7,6.7c-0.8-0.9-1.1-1.9-1.1-3.2c0-1,0.3-1.8,0.9-2.4
		c0.6-0.6,1.4-0.9,2.3-0.9c1.4,0,2.5,0.4,3.2,1.3c0.8,0.9,1.1,1.9,1.1,3.2c0,1-0.3,1.8-0.9,2.4C107.7,7.7,106.9,8,106,8
		C104.6,8,103.5,7.5,102.7,6.7z"/>
	<path class="st0" d="M132.5,18.7c0-2-0.3-3.5-0.8-4.4c-0.5-1-1.6-1.4-3.3-1.4h-0.6v-1.8h7c1.4,0,2.5,0.2,3.2,0.7
		c0.7,0.5,1.3,1.2,1.6,2.3c0.3,1.1,0.5,2.6,0.5,4.6v19.9h-7.6V18.7z M133,6.7c-0.8-0.9-1.1-1.9-1.1-3.2c0-1,0.3-1.8,0.9-2.4
		c0.6-0.6,1.4-0.9,2.3-0.9c1.4,0,2.5,0.4,3.2,1.3c0.8,0.9,1.1,1.9,1.1,3.2c0,1-0.3,1.8-0.9,2.4C138,7.7,137.2,8,136.3,8
		C134.9,8,133.8,7.5,133,6.7z"/>
	<path class="st0" d="M148.3,7.6c0-2-0.3-3.5-0.8-4.4c-0.5-1-1.6-1.4-3.3-1.4h-0.6V0h7c1.4,0,2.5,0.2,3.2,0.7
		c0.7,0.5,1.3,1.2,1.6,2.3c0.3,1.1,0.5,2.6,0.5,4.6v31h-7.6V7.6z"/>
	<path class="st0" d="M165,35.2c-2.1-2.7-3.2-6.1-3.2-10.3s1.1-7.7,3.2-10.3c2.2-2.7,5.3-4,9.3-4c1.4,0,2.9,0.3,4.5,0.9
		c0.6,0.3,1.1,0.6,1.6,0.9V7.6c0-2-0.3-3.5-0.8-4.4c-0.5-1-1.6-1.4-3.3-1.4h-0.6V0h7c1.4,0,2.5,0.2,3.2,0.7c0.7,0.5,1.3,1.2,1.6,2.3
		c0.3,1.1,0.5,2.6,0.5,4.6v31h-5l-2-2.6h-0.3c-0.4,0.5-0.9,1.1-1.6,1.6c-1.3,1.1-3,1.6-5.1,1.6C170.1,39.2,167.1,37.9,165,35.2z
		 M179.2,34.7c0.4-0.4,0.9-1.1,1.3-1.9V14.9c-0.4-0.3-0.9-0.6-1.4-0.9c-1.2-0.6-2.4-0.9-3.6-0.9c-3.9,0-5.9,3.9-5.9,11.7
		c0,3.6,0.4,6.5,1.3,8.6c0.9,2.1,2.3,3.1,4.2,3.1C176.7,36.6,178,36,179.2,34.7z"/>
	<path class="st0" d="M212.9,12.4c2,1.2,3.6,3,4.7,5.1s1.7,4.6,1.7,7.3c0,3-0.6,5.6-1.7,7.8c-1.1,2.1-2.6,3.8-4.6,4.9
		c-2,1.1-4.2,1.7-6.6,1.7c-2.4,0-4.6-0.5-6.6-1.5c-2-1-3.5-2.4-4.6-4.1c-1.1-1.8-1.7-3.8-1.7-6.1c0-0.7,0-1.6,0.1-2.5l0.1-1.2h17.6
		c0-3.7-0.6-6.4-1.7-8.1c-1.1-1.7-2.7-2.5-4.7-2.5c-1.9,0-3.4,0.4-4.7,1.3c-1.3,0.8-2.5,2-3.7,3.6l-1.8-1.3c1.1-1.8,2.5-3.2,4.2-4.4
		s4-1.8,6.8-1.8C208.5,10.5,210.9,11.2,212.9,12.4z M201.4,26.5c0,3.7,0.4,6.3,1.3,7.8c0.9,1.5,2.1,2.3,3.7,2.3
		c1.5,0,2.7-0.8,3.6-2.4c0.9-1.6,1.4-4.2,1.4-7.8H201.4z"/>
	<path class="st0" d="M248.5,37.7c-0.7-0.5-1.2-1-1.6-1.6h-0.3l-2,2.6h-5v-31c0-2-0.3-3.5-0.8-4.4c-0.5-1-1.6-1.4-3.3-1.4h-0.6V0h7
		c1.4,0,2.5,0.2,3.2,0.7c0.7,0.5,1.3,1.2,1.6,2.3c0.3,1.1,0.5,2.6,0.5,4.6v4.7c0.5-0.3,1.1-0.6,1.6-0.9c1.6-0.6,3.1-0.9,4.5-0.9
		c4.1,0,7.2,1.3,9.3,4c2.2,2.7,3.2,6.1,3.2,10.3s-1.1,7.7-3.2,10.3c-2.1,2.7-5.2,4-9.1,4C251.6,39.2,249.8,38.7,248.5,37.7z
		 M256.7,33.4c0.9-2.1,1.3-5,1.3-8.5c0-7.8-2-11.7-5.9-11.7c-1.1,0-2.3,0.3-3.6,0.9c-0.5,0.3-1,0.6-1.4,0.9v17.9
		c0.4,0.8,0.8,1.4,1.3,1.9c1.2,1.2,2.5,1.9,4,1.9C254.4,36.6,255.8,35.5,256.7,33.4z"/>
	<path class="st0" d="M272.8,18.7c0-2-0.3-3.5-0.8-4.4c-0.5-1-1.6-1.4-3.3-1.4h-0.6v-1.8h7c1.4,0,2.5,0.2,3.2,0.7
		c0.7,0.5,1.3,1.2,1.6,2.3c0.3,1.1,0.5,2.6,0.5,4.6v19.9h-7.6V18.7z M273.3,6.7c-0.8-0.9-1.1-1.9-1.1-3.2c0-1,0.3-1.8,0.9-2.4
		c0.6-0.6,1.4-0.9,2.3-0.9c1.4,0,2.5,0.4,3.2,1.3c0.8,0.9,1.1,1.9,1.1,3.2c0,1-0.3,1.8-0.9,2.4c-0.6,0.6-1.4,0.9-2.3,0.9
		C275.2,8,274.1,7.5,273.3,6.7z"/>
	<path class="st0" d="M307.6,13.4c0.3,0.6,0.5,0.9,0.5,1l-3,2.3c-0.3-0.4-0.6-0.7-1.1-1.1c-0.9-0.8-1.9-1.2-3-1.2
		c-2.3,0-4,0.6-5.2,1.8l0.1,0.9c0.1,0.7,0.1,1.3,0.1,1.9v19.7h-7.6V18.7c0-2-0.3-3.5-0.8-4.4c-0.5-1-1.6-1.4-3.2-1.4h-0.6v-1.8h5.8
		c1.3,0,2.4,0.2,3.1,0.5c0.8,0.3,1.4,0.9,1.8,1.7c2.1-1.8,4.6-2.8,7.4-2.8c1.7,0,3.1,0.4,4.2,1.2C306.8,12.2,307.3,12.8,307.6,13.4z
		"/>
	<path class="st0" d="M312,7.6c0-2-0.3-3.5-0.8-4.4c-0.5-1-1.6-1.4-3.3-1.4h-0.6V0h7c1.4,0,2.5,0.2,3.2,0.7c0.7,0.5,1.3,1.2,1.6,2.3
		c0.3,1.1,0.5,2.6,0.5,4.6v31H312V7.6z"/>
	<path class="st0" d="M328,18.7c0-2-0.3-3.5-0.8-4.4c-0.5-1-1.6-1.4-3.3-1.4h-0.6v-1.8h7c1.4,0,2.5,0.2,3.2,0.7
		c0.7,0.5,1.3,1.2,1.6,2.3c0.3,1.1,0.5,2.6,0.5,4.6v19.9H328V18.7z M328.5,6.7c-0.8-0.9-1.1-1.9-1.1-3.2c0-1,0.3-1.8,0.9-2.4
		c0.6-0.6,1.4-0.9,2.3-0.9c1.4,0,2.5,0.4,3.2,1.3c0.8,0.9,1.1,1.9,1.1,3.2c0,1-0.3,1.8-0.9,2.4c-0.6,0.6-1.4,0.9-2.3,0.9
		C330.4,8,329.3,7.5,328.5,6.7z"/>
	<path class="st0" d="M361,38.1c-1.4-0.7-2.8-1.9-4-3.6l-5.6-7.4v11.5h-7.6v-31c0-2-0.3-3.5-0.8-4.4c-0.5-1-1.6-1.4-3.3-1.4H339V0h7
		c1.4,0,2.5,0.2,3.2,0.7c0.7,0.5,1.3,1.2,1.6,2.3c0.3,1.1,0.5,2.6,0.5,4.6v16.7l7.1-8.7c1.3-1.6,2.6-2.8,3.7-3.5
		c1.2-0.7,2.7-1.1,4.7-1.1h1.2v1.5c-1.2,0-2.2,0.2-3.2,0.7c-0.9,0.5-1.8,1.2-2.7,2.2l-5.7,6.9l7.8,10.3c1.9,2.5,3.7,4,5.4,4.5v1.4
		c-0.3,0.2-0.9,0.3-1.7,0.4c-0.8,0.1-1.6,0.2-2.3,0.2C364,39.2,362.4,38.9,361,38.1z"/>
	<path class="st0" d="M373.2,35.2c-2.1-2.7-3.2-6.1-3.2-10.3s1.1-7.7,3.2-10.3c2.2-2.7,5.3-4,9.3-4c1.4,0,2.9,0.3,4.5,0.9
		c0.6,0.3,1.1,0.6,1.6,0.9V7.6c0-2-0.3-3.5-0.8-4.4c-0.5-1-1.6-1.4-3.3-1.4h-0.6V0h7c1.4,0,2.5,0.2,3.2,0.7c0.7,0.5,1.3,1.2,1.6,2.3
		c0.3,1.1,0.5,2.6,0.5,4.6v31h-5l-2-2.6H389c-0.4,0.5-0.9,1.1-1.6,1.6c-1.3,1.1-3,1.6-5.1,1.6C378.4,39.2,375.3,37.9,373.2,35.2z
		 M387.4,34.7c0.4-0.4,0.9-1.1,1.3-1.9V14.9c-0.4-0.3-0.9-0.6-1.4-0.9c-1.2-0.6-2.4-0.9-3.6-0.9c-3.9,0-5.9,3.9-5.9,11.7
		c0,3.6,0.4,6.5,1.3,8.6c0.9,2.1,2.3,3.1,4.2,3.1C384.9,36.6,386.2,36,387.4,34.7z"/>
	<path class="st0" d="M421.1,12.4c2,1.2,3.6,3,4.7,5.1c1.1,2.2,1.7,4.6,1.7,7.3c0,3-0.6,5.6-1.7,7.8c-1.1,2.1-2.6,3.8-4.6,4.9
		c-2,1.1-4.2,1.7-6.6,1.7c-2.4,0-4.6-0.5-6.6-1.5c-2-1-3.5-2.4-4.6-4.1c-1.1-1.8-1.7-3.8-1.7-6.1c0-0.7,0-1.6,0.1-2.5l0.1-1.2h17.6
		c0-3.7-0.6-6.4-1.7-8.1c-1.1-1.7-2.7-2.5-4.7-2.5c-1.9,0-3.4,0.4-4.7,1.3c-1.3,0.8-2.5,2-3.7,3.6l-1.8-1.3c1.1-1.8,2.5-3.2,4.2-4.4
		s4-1.8,6.8-1.8C416.7,10.5,419.1,11.2,421.1,12.4z M409.7,26.5c0,3.7,0.4,6.3,1.3,7.8c0.9,1.5,2.1,2.3,3.7,2.3
		c1.5,0,2.7-0.8,3.6-2.4c0.9-1.6,1.4-4.2,1.4-7.8H409.7z"/>
</g>
</svg>
